<mxfile host="65bd71144e">
    <diagram id="48Qfoo2tBfc1Pg3dXIVV" name="Page-1">
        <mxGraphModel dx="1566" dy="1667" grid="1" gridSize="10" guides="1" tooltips="1" connect="1" arrows="1" fold="1" page="1" pageScale="1" pageWidth="850" pageHeight="1100" math="0" shadow="0">
            <root>
                <mxCell id="0"/>
                <mxCell id="1" parent="0"/>
                <mxCell id="2" value="View" style="swimlane;fontStyle=1;align=center;verticalAlign=top;childLayout=stackLayout;horizontal=1;startSize=26;horizontalStack=0;resizeParent=1;resizeParentMax=0;resizeLast=0;collapsible=1;marginBottom=0;" vertex="1" parent="1">
                    <mxGeometry x="100" y="60" width="160" height="86" as="geometry"/>
                </mxCell>
                <mxCell id="KunvZ8ATCR-c_qVb01Gg-22" value="" style="endArrow=none;startArrow=diamondThin;endFill=0;startFill=0;html=1;verticalAlign=bottom;labelBackgroundColor=none;strokeWidth=1;startSize=8;endSize=8;" edge="1" parent="2" target="7">
                    <mxGeometry width="160" relative="1" as="geometry">
                        <mxPoint x="150" y="30" as="sourcePoint"/>
                        <mxPoint x="310" y="30" as="targetPoint"/>
                    </mxGeometry>
                </mxCell>
                <mxCell id="KunvZ8ATCR-c_qVb01Gg-40" value="" style="endArrow=none;startArrow=diamondThin;endFill=0;startFill=0;html=1;verticalAlign=bottom;labelBackgroundColor=none;strokeWidth=1;startSize=8;endSize=8;entryX=-0.011;entryY=0.8;entryDx=0;entryDy=0;entryPerimeter=0;" edge="1" parent="2" target="KunvZ8ATCR-c_qVb01Gg-37">
                    <mxGeometry width="160" relative="1" as="geometry">
                        <mxPoint x="80" as="sourcePoint"/>
                        <mxPoint x="240" as="targetPoint"/>
                    </mxGeometry>
                </mxCell>
                <mxCell id="3" value="+ field: type" style="text;strokeColor=none;fillColor=none;align=left;verticalAlign=top;spacingLeft=4;spacingRight=4;overflow=hidden;rotatable=0;points=[[0,0.5],[1,0.5]];portConstraint=eastwest;" vertex="1" parent="2">
                    <mxGeometry y="26" width="160" height="26" as="geometry"/>
                </mxCell>
                <mxCell id="4" value="" style="line;strokeWidth=1;fillColor=none;align=left;verticalAlign=middle;spacingTop=-1;spacingLeft=3;spacingRight=3;rotatable=0;labelPosition=right;points=[];portConstraint=eastwest;strokeColor=inherit;" vertex="1" parent="2">
                    <mxGeometry y="52" width="160" height="8" as="geometry"/>
                </mxCell>
                <mxCell id="5" value="+ method(type): type" style="text;strokeColor=none;fillColor=none;align=left;verticalAlign=top;spacingLeft=4;spacingRight=4;overflow=hidden;rotatable=0;points=[[0,0.5],[1,0.5]];portConstraint=eastwest;" vertex="1" parent="2">
                    <mxGeometry y="60" width="160" height="26" as="geometry"/>
                </mxCell>
                <mxCell id="6" value="Layer" style="swimlane;fontStyle=1;align=center;verticalAlign=middle;childLayout=stackLayout;horizontal=1;startSize=29;horizontalStack=0;resizeParent=1;resizeParentMax=0;resizeLast=0;collapsible=0;marginBottom=0;html=1;" vertex="1" parent="1">
                    <mxGeometry x="400" y="70" width="140" height="79" as="geometry"/>
                </mxCell>
                <mxCell id="7" value="&amp;lt;&amp;lt;stereotype1&amp;gt;&amp;gt;" style="text;html=1;strokeColor=none;fillColor=none;align=center;verticalAlign=middle;spacingLeft=4;spacingRight=4;overflow=hidden;rotatable=0;points=[[0,0.5],[1,0.5]];portConstraint=eastwest;" vertex="1" parent="6">
                    <mxGeometry y="29" width="140" height="25" as="geometry"/>
                </mxCell>
                <mxCell id="8" value="stereotype property 1" style="text;html=1;strokeColor=none;fillColor=none;align=left;verticalAlign=middle;spacingLeft=4;spacingRight=4;overflow=hidden;rotatable=0;points=[[0,0.5],[1,0.5]];portConstraint=eastwest;" vertex="1" parent="6">
                    <mxGeometry y="54" width="140" height="25" as="geometry"/>
                </mxCell>
                <mxCell id="KunvZ8ATCR-c_qVb01Gg-26" value="" style="endArrow=none;startArrow=diamondThin;endFill=0;startFill=0;html=1;verticalAlign=bottom;labelBackgroundColor=none;strokeWidth=1;startSize=8;endSize=8;entryX=0;entryY=0.5;entryDx=0;entryDy=0;" edge="1" parent="6" target="KunvZ8ATCR-c_qVb01Gg-24">
                    <mxGeometry width="160" relative="1" as="geometry">
                        <mxPoint x="130" y="70" as="sourcePoint"/>
                        <mxPoint x="290" y="70" as="targetPoint"/>
                    </mxGeometry>
                </mxCell>
                <mxCell id="KunvZ8ATCR-c_qVb01Gg-8" value="GlobeView" style="swimlane;fontStyle=1;align=center;verticalAlign=top;childLayout=stackLayout;horizontal=1;startSize=26;horizontalStack=0;resizeParent=1;resizeParentMax=0;resizeLast=0;collapsible=1;marginBottom=0;" vertex="1" parent="1">
                    <mxGeometry y="280" width="160" height="86" as="geometry"/>
                </mxCell>
                <mxCell id="KunvZ8ATCR-c_qVb01Gg-9" value="+ field: type" style="text;strokeColor=none;fillColor=none;align=left;verticalAlign=top;spacingLeft=4;spacingRight=4;overflow=hidden;rotatable=0;points=[[0,0.5],[1,0.5]];portConstraint=eastwest;" vertex="1" parent="KunvZ8ATCR-c_qVb01Gg-8">
                    <mxGeometry y="26" width="160" height="26" as="geometry"/>
                </mxCell>
                <mxCell id="KunvZ8ATCR-c_qVb01Gg-10" value="" style="line;strokeWidth=1;fillColor=none;align=left;verticalAlign=middle;spacingTop=-1;spacingLeft=3;spacingRight=3;rotatable=0;labelPosition=right;points=[];portConstraint=eastwest;strokeColor=inherit;" vertex="1" parent="KunvZ8ATCR-c_qVb01Gg-8">
                    <mxGeometry y="52" width="160" height="8" as="geometry"/>
                </mxCell>
                <mxCell id="KunvZ8ATCR-c_qVb01Gg-11" value="+ method(type): type" style="text;strokeColor=none;fillColor=none;align=left;verticalAlign=top;spacingLeft=4;spacingRight=4;overflow=hidden;rotatable=0;points=[[0,0.5],[1,0.5]];portConstraint=eastwest;" vertex="1" parent="KunvZ8ATCR-c_qVb01Gg-8">
                    <mxGeometry y="60" width="160" height="26" as="geometry"/>
                </mxCell>
                <mxCell id="KunvZ8ATCR-c_qVb01Gg-12" value="PlanarView" style="swimlane;fontStyle=1;align=center;verticalAlign=top;childLayout=stackLayout;horizontal=1;startSize=26;horizontalStack=0;resizeParent=1;resizeParentMax=0;resizeLast=0;collapsible=1;marginBottom=0;" vertex="1" parent="1">
                    <mxGeometry x="190" y="280" width="160" height="86" as="geometry"/>
                </mxCell>
                <mxCell id="KunvZ8ATCR-c_qVb01Gg-13" value="+ field: type" style="text;strokeColor=none;fillColor=none;align=left;verticalAlign=top;spacingLeft=4;spacingRight=4;overflow=hidden;rotatable=0;points=[[0,0.5],[1,0.5]];portConstraint=eastwest;" vertex="1" parent="KunvZ8ATCR-c_qVb01Gg-12">
                    <mxGeometry y="26" width="160" height="26" as="geometry"/>
                </mxCell>
                <mxCell id="KunvZ8ATCR-c_qVb01Gg-14" value="" style="line;strokeWidth=1;fillColor=none;align=left;verticalAlign=middle;spacingTop=-1;spacingLeft=3;spacingRight=3;rotatable=0;labelPosition=right;points=[];portConstraint=eastwest;strokeColor=inherit;" vertex="1" parent="KunvZ8ATCR-c_qVb01Gg-12">
                    <mxGeometry y="52" width="160" height="8" as="geometry"/>
                </mxCell>
                <mxCell id="KunvZ8ATCR-c_qVb01Gg-15" value="+ method(type): type" style="text;strokeColor=none;fillColor=none;align=left;verticalAlign=top;spacingLeft=4;spacingRight=4;overflow=hidden;rotatable=0;points=[[0,0.5],[1,0.5]];portConstraint=eastwest;" vertex="1" parent="KunvZ8ATCR-c_qVb01Gg-12">
                    <mxGeometry y="60" width="160" height="26" as="geometry"/>
                </mxCell>
                <mxCell id="KunvZ8ATCR-c_qVb01Gg-16" value="Source" style="swimlane;fontStyle=1;align=center;verticalAlign=middle;childLayout=stackLayout;horizontal=1;startSize=29;horizontalStack=0;resizeParent=1;resizeParentMax=0;resizeLast=0;collapsible=0;marginBottom=0;html=1;" vertex="1" parent="1">
                    <mxGeometry x="620" y="50" width="140" height="79" as="geometry"/>
                </mxCell>
                <mxCell id="KunvZ8ATCR-c_qVb01Gg-17" value="&amp;lt;&amp;lt;stereotype1&amp;gt;&amp;gt;" style="text;html=1;strokeColor=none;fillColor=none;align=center;verticalAlign=middle;spacingLeft=4;spacingRight=4;overflow=hidden;rotatable=0;points=[[0,0.5],[1,0.5]];portConstraint=eastwest;" vertex="1" parent="KunvZ8ATCR-c_qVb01Gg-16">
                    <mxGeometry y="29" width="140" height="25" as="geometry"/>
                </mxCell>
                <mxCell id="KunvZ8ATCR-c_qVb01Gg-18" value="stereotype property 1" style="text;html=1;strokeColor=none;fillColor=none;align=left;verticalAlign=middle;spacingLeft=4;spacingRight=4;overflow=hidden;rotatable=0;points=[[0,0.5],[1,0.5]];portConstraint=eastwest;" vertex="1" parent="KunvZ8ATCR-c_qVb01Gg-16">
                    <mxGeometry y="54" width="140" height="25" as="geometry"/>
                </mxCell>
                <mxCell id="KunvZ8ATCR-c_qVb01Gg-19" value="Extends" style="endArrow=block;endSize=16;endFill=0;html=1;entryX=0.469;entryY=1.023;entryDx=0;entryDy=0;entryPerimeter=0;exitX=0.5;exitY=0;exitDx=0;exitDy=0;" edge="1" parent="1" source="KunvZ8ATCR-c_qVb01Gg-8" target="5">
                    <mxGeometry width="160" relative="1" as="geometry">
                        <mxPoint x="110" y="200" as="sourcePoint"/>
                        <mxPoint x="270" y="200" as="targetPoint"/>
                    </mxGeometry>
                </mxCell>
                <mxCell id="KunvZ8ATCR-c_qVb01Gg-20" value="Extends" style="endArrow=block;endSize=16;endFill=0;html=1;exitX=0.5;exitY=0;exitDx=0;exitDy=0;" edge="1" parent="1" source="KunvZ8ATCR-c_qVb01Gg-12" target="5">
                    <mxGeometry width="160" relative="1" as="geometry">
                        <mxPoint x="230" y="190" as="sourcePoint"/>
                        <mxPoint x="390" y="190" as="targetPoint"/>
                    </mxGeometry>
                </mxCell>
                <mxCell id="KunvZ8ATCR-c_qVb01Gg-21" value="" style="endArrow=none;startArrow=diamondThin;endFill=0;startFill=0;html=1;verticalAlign=bottom;labelBackgroundColor=none;strokeWidth=1;startSize=8;endSize=8;entryX=0;entryY=0.5;entryDx=0;entryDy=0;exitX=1.007;exitY=-0.214;exitDx=0;exitDy=0;exitPerimeter=0;" edge="1" parent="1" source="7" target="KunvZ8ATCR-c_qVb01Gg-17">
                    <mxGeometry width="160" relative="1" as="geometry">
                        <mxPoint x="530" y="100" as="sourcePoint"/>
                        <mxPoint x="690" y="100" as="targetPoint"/>
                    </mxGeometry>
                </mxCell>
                <mxCell id="KunvZ8ATCR-c_qVb01Gg-23" value="Style" style="swimlane;fontStyle=1;align=center;verticalAlign=middle;childLayout=stackLayout;horizontal=1;startSize=29;horizontalStack=0;resizeParent=1;resizeParentMax=0;resizeLast=0;collapsible=0;marginBottom=0;html=1;" vertex="1" parent="1">
                    <mxGeometry x="620" y="170" width="140" height="79" as="geometry"/>
                </mxCell>
                <mxCell id="KunvZ8ATCR-c_qVb01Gg-24" value="&amp;lt;&amp;lt;stereotype1&amp;gt;&amp;gt;" style="text;html=1;strokeColor=none;fillColor=none;align=center;verticalAlign=middle;spacingLeft=4;spacingRight=4;overflow=hidden;rotatable=0;points=[[0,0.5],[1,0.5]];portConstraint=eastwest;" vertex="1" parent="KunvZ8ATCR-c_qVb01Gg-23">
                    <mxGeometry y="29" width="140" height="25" as="geometry"/>
                </mxCell>
                <mxCell id="KunvZ8ATCR-c_qVb01Gg-25" value="stereotype property 1" style="text;html=1;strokeColor=none;fillColor=none;align=left;verticalAlign=middle;spacingLeft=4;spacingRight=4;overflow=hidden;rotatable=0;points=[[0,0.5],[1,0.5]];portConstraint=eastwest;" vertex="1" parent="KunvZ8ATCR-c_qVb01Gg-23">
                    <mxGeometry y="54" width="140" height="25" as="geometry"/>
                </mxCell>
                <mxCell id="KunvZ8ATCR-c_qVb01Gg-36" value="CRS" style="swimlane;fontStyle=1;align=center;verticalAlign=middle;childLayout=stackLayout;horizontal=1;startSize=29;horizontalStack=0;resizeParent=1;resizeParentMax=0;resizeLast=0;collapsible=0;marginBottom=0;html=1;" vertex="1" parent="1">
                    <mxGeometry x="400" y="-60" width="140" height="79" as="geometry"/>
                </mxCell>
                <mxCell id="KunvZ8ATCR-c_qVb01Gg-37" value="&amp;lt;&amp;lt;stereotype1&amp;gt;&amp;gt;" style="text;html=1;strokeColor=none;fillColor=none;align=center;verticalAlign=middle;spacingLeft=4;spacingRight=4;overflow=hidden;rotatable=0;points=[[0,0.5],[1,0.5]];portConstraint=eastwest;" vertex="1" parent="KunvZ8ATCR-c_qVb01Gg-36">
                    <mxGeometry y="29" width="140" height="25" as="geometry"/>
                </mxCell>
                <mxCell id="KunvZ8ATCR-c_qVb01Gg-38" value="stereotype property 1" style="text;html=1;strokeColor=none;fillColor=none;align=left;verticalAlign=middle;spacingLeft=4;spacingRight=4;overflow=hidden;rotatable=0;points=[[0,0.5],[1,0.5]];portConstraint=eastwest;" vertex="1" parent="KunvZ8ATCR-c_qVb01Gg-36">
                    <mxGeometry y="54" width="140" height="25" as="geometry"/>
                </mxCell>
                <mxCell id="KunvZ8ATCR-c_qVb01Gg-39" value="" style="endArrow=none;startArrow=diamondThin;endFill=0;startFill=0;html=1;verticalAlign=bottom;labelBackgroundColor=none;strokeWidth=1;startSize=8;endSize=8;entryX=1;entryY=0.5;entryDx=0;entryDy=0;" edge="1" parent="1" source="KunvZ8ATCR-c_qVb01Gg-16" target="KunvZ8ATCR-c_qVb01Gg-37">
                    <mxGeometry width="160" relative="1" as="geometry">
                        <mxPoint x="630" y="-50" as="sourcePoint"/>
                        <mxPoint x="790" y="-50" as="targetPoint"/>
                    </mxGeometry>
                </mxCell>
            </root>
        </mxGraphModel>
    </diagram>
    <diagram id="0JIPzimM098mpLpNYYez" name="Layers">
        <mxGraphModel dx="611" dy="445" grid="1" gridSize="10" guides="1" tooltips="1" connect="1" arrows="1" fold="1" page="1" pageScale="1" pageWidth="850" pageHeight="1100" math="0" shadow="0">
            <root>
                <mxCell id="0"/>
                <mxCell id="1" parent="0"/>
            </root>
        </mxGraphModel>
    </diagram>
    <diagram id="ajLhY4qWRp48qZy_rYFe" name="Page-3">
        <mxGraphModel dx="611" dy="445" grid="1" gridSize="10" guides="1" tooltips="1" connect="1" arrows="1" fold="1" page="1" pageScale="1" pageWidth="850" pageHeight="1100" math="0" shadow="0">
            <root>
                <mxCell id="0"/>
                <mxCell id="1" parent="0"/>
            </root>
        </mxGraphModel>
    </diagram>
</mxfile>